<svg fill="none" height="40" viewBox="0 0 200 40" width="200" xmlns="http://www.w3.org/2000/svg" xmlns:xlink="http://www.w3.org/1999/xlink"><clipPath id="a"><path d="m0 0h200v40h-200z"/></clipPath><g clip-path="url(#a)"><path clip-rule="evenodd" d="m59.9065 6.87946c7.3355 0 13.2326 5.81564 13.2326 13.04964s-5.8971 13.0496-13.2326 13.0496-13.2327-5.8156-13.2327-13.0496c0-7.1631 5.8972-13.04964 13.2327-13.04964z" fill="#f16167" fill-rule="evenodd"/><g fill="#fff"><path d="m.215775 25.7447 4.818405-1.844c.14384-.0709.35959 0 .4315.2128.71917 1.773 2.30133 2.8368 4.74652 2.8368 1.9417 0 3.1643-.7801 3.1643-2.0567 0-3.9716-12.36964-2.4823-12.36964-9.8582 0-4.3262 3.59583-6.87939 9.13344-6.87939 4.3869 0 7.6231 1.70212 8.7019 4.68089.0719.1418 0 .3546-.2158.4255l-4.8184 1.844c-.1438.0709-.3596 0-.4315-.1419-.5753-1.3475-1.7979-2.0567-3.38007-2.0567-1.726 0-2.80475.7092-2.80475 1.8439 0 3.6171 12.36962 1.4894 12.36962 9.7873 0 4.539-3.8115 7.3759-9.63679 7.3759-4.89032-.1419-8.48615-2.0568-9.92448518-5.7447-.07191662-.2128.07191658-.4255.21575018-.4255z"/><path d="m35.2391 8.08511c-2.7328 0-5.0341.92198-6.5444 2.34039v-10.07089c0-.141844-.0719-.212766-.1438-.283688-.1438-.070922-.2877-.070922-.3596-.070922l-5.7533 2.19858c-.1439.07092-.2158.14185-.2158.28369v28.36883c0 .2127.1439.3546.3596.3546h5.7533c.2158 0 .3596-.1419.3596-.3546v-12.9788c.0719-2.3404 2.0856-4.1134 4.6027-4.1134 2.589 0 4.5307 1.6312 4.5307 4.539v12.695c0 .2128.1439.3546.3596.3546h5.7533c.2158 0 .3596-.1418.3596-.3546v-14.0425c-.1438-5.2483-3.5958-8.86529-9.0615-8.86529z"/><path d="m88.817 8.08508c-2.589 0-5.1061 1.13476-6.7602 2.62412v-2.26951c0-.14184-.0719-.21276-.1438-.28368-.0719-.07093-.2158-.07093-.2877-.07093l-5.7533 2.19862c-.1438.0709-.2158.1418-.2158.2837v29.078c0 .2127.1439.3546.3596.3546h5.7534c.2157 0 .3595-.1419.3595-.3546v-10.2837c1.726 1.4893 4.0274 2.4822 6.7602 2.4822 6.6163 0 11.8661-4.468 11.8661-11.8439s-5.3217-11.91492-11.938-11.91492zm-.9349 5.60282c3.452 0 6.3286 2.766 6.3286 6.2412 0 3.4042-2.8047 6.2411-6.3286 6.2411-3.452 0-6.3287-2.766-6.3287-6.2411.0719-3.4752 2.8767-6.2412 6.3287-6.2412z"/><path d="m153.686 9.078-10.572 30.7092c-.072.1419-.144.2128-.288.2128h-6.184c-.144 0-.216-.0709-.288-.1419-.072-.0709-.072-.2127-.072-.2836l3.092-8.2979h-2.661l-8.126-22.1986c-.072-.07092 0-.21277.072-.28369s.144-.14184.287-.14184h6.473c.144 0 .288.07092.288.21276l5.609 17.30497 5.25-17.30497c.072-.14184.144-.21276.288-.21276h6.472c.144 0 .216.07092.288.14184.144.07092.144.14184.072.28369z"/><path d="m116.361 8.08508c-2.517 0-5.106 1.06383-6.76 2.55322v-2.26953c0-.14184-.072-.21277-.144-.28369s-.216-.07092-.288-.07092l-5.753 2.19854c-.144.071-.216.1419-.216.2837v29.078c0 .2128.144.3547.36.3547h5.753c.216 0 .36-.1419.36-.3547v-10.2127c1.726 1.4893 4.027 2.4823 6.76 2.4823 6.616 0 11.866-4.4681 11.866-11.844s-5.322-11.91492-11.938-11.91492zm-.863 5.60282c3.452 0 6.329 2.766 6.329 6.2412 0 3.4042-2.805 6.2411-6.329 6.2411s-6.329-2.766-6.329-6.2411c0-3.4752 2.805-6.2412 6.329-6.2412z"/></g><g fill="#ff6670"><path d="m161.597 26.4539h-1.583v-2.8369h-2.732v-1.3475h2.732v-2.8369h1.583v2.8369h2.732v1.3475h-2.732z"/><path d="m166.415 5.95744-1.942.49646c-.503.14184-.935.28369-1.294.49645-.36.21277-.719.42553-1.007.6383-.288.28369-.504.56738-.647.92199-.144.35461-.216.78014-.288 1.20567.288-.35461.647-.6383 1.007-.78014.431-.21277.863-.28369 1.366-.28369.504 0 .935.07092 1.367.28369.431.21276.791.42553 1.078.78014.288.35459.576.70919.72 1.13479.215.4255.287.851.287 1.3475 0 .4964-.072.922-.287 1.3475-.216.4255-.432.7801-.792 1.1347-.359.3547-.719.5674-1.15.7802-.432.2128-.935.2837-1.51.2837-.504 0-1.007-.0709-1.511-.2837-.431-.2128-.863-.4255-1.15-.7802-.36-.3546-.576-.7801-.791-1.2765-.216-.4965-.288-1.0639-.288-1.7022v-.851c0-.8511.072-1.63124.288-2.19862.215-.6383.431-1.13475.863-1.56028.359-.42554.791-.78015 1.366-1.06383.575-.28369 1.151-.49646 1.87-.70922l2.013-.49646zm-3.021 4.11346c-.287 0-.575.0709-.863.1419-.287.1418-.503.2837-.719.4255-.215.2128-.359.4255-.431.7092-.144.2837-.144.5674-.144.8511s.072.5674.144.851c.144.2837.287.4965.431.6383.216.2128.432.3547.719.4256.288.1418.576.1418.863.1418.288 0 .576-.0709.863-.1418.288-.1419.504-.2837.72-.4256.215-.2127.359-.4255.431-.6383.144-.2836.144-.5673.144-.851s-.072-.5674-.144-.8511c-.144-.2837-.288-.4964-.431-.7092-.216-.2128-.432-.3546-.72-.4255-.287-.071-.503-.1419-.863-.1419zm7.839-1.70211c.432 0 .863.07092 1.223.21277.36.14184.647.28369.935.56737.288.21277.431.56738.575.92197.144.3546.216.7802.216 1.2766v4.2553h-1.438v-.7801c-.216.2837-.576.4964-.935.7092-.36.1419-.791.2837-1.295.2837-.359 0-.719-.0709-1.007-.1418-.287-.071-.575-.2128-.791-.4256-.215-.2127-.359-.4255-.503-.6383-.144-.2127-.144-.4964-.144-.851 0-.6383.216-1.1348.719-1.4894.504-.3546 1.079-.5674 1.942-.5674h2.014v-.4255c0-.4965-.144-.8511-.36-1.1348-.288-.28365-.647-.35457-1.151-.35457-.431 0-.791.07092-1.078.28367-.288.2128-.576.4256-.935.7802l-.863-.92202c.359-.49646.791-.92199 1.294-1.13476.432-.28368 1.007-.42553 1.582-.42553zm-.431 6.17021c.216 0 .503-.0709.719-.1418.216-.071.432-.2128.575-.3546.144-.1419.288-.3547.432-.4965.072-.2128.144-.4255.144-.6383v-.1418h-1.798c-.432 0-.719.0709-.935.2127-.216.1419-.36.3546-.36.6383s.144.5674.36.7092c.216.1419.503.2128.863.2128zm11.075.9929h-1.51v-2.0567h-1.726-.072l-1.798 2.0567h-1.726l1.942-2.3404c-.432-.2128-.719-.4965-.935-.8511s-.36-.7801-.36-1.2766c0-.3546.072-.7092.216-1.0638.144-.28369.36-.56738.575-.78014.216-.21277.576-.35461.863-.49646.36-.14184.719-.21276 1.151-.21276h3.236v7.02126zm-3.092-5.67375c-.432 0-.791.07093-1.007.28365-.216.2128-.36.4965-.36.8511s.144.6383.36.8511c.216.2127.575.3546 1.007.3546h1.582v-2.41137h-1.582zm9.061-1.48936c.504 0 .935.07092 1.367.28369.431.21277.791.42553 1.078.78014.288.35461.576.70918.719 1.13478.144.4255.288.922.288 1.4184 0 .4965-.072.9929-.288 1.4894-.143.4255-.431.851-.719 1.1347-.287.3546-.719.5674-1.078.7802-.432.2127-.863.2837-1.367.2837-.503 0-.935-.071-1.366-.2837-.432-.1419-.719-.4256-1.007-.7093v3.4043h-1.51v-9.57446h1.438v.9929c.288-.35461.575-.63829 1.079-.85106.359-.21277.791-.28369 1.366-.28369zm-.288 1.34752c-.287 0-.503.07092-.791.14184-.287.07093-.503.21275-.719.42555s-.359.4255-.503.7092-.216.6383-.216 1.0638c0 .4256.072.7093.216 1.0639.144.2837.287.4964.503.7092s.432.3546.719.4255c.288.0709.504.1419.791.1419.288 0 .576-.071.863-.1419.288-.1418.504-.2837.72-.4964.215-.2128.359-.4256.431-.7093.144-.2836.144-.5673.144-.9219 0-.3547-.072-.6383-.144-.922-.144-.2837-.288-.4965-.431-.7092-.216-.2128-.432-.3547-.72-.4965-.215-.21277-.503-.28369-.863-.28369z"/><path d="m166.631 26.4539h-1.511v-7.0213h1.511zm4.315-7.1631c.503 0 1.007.0709 1.51.2837.431.2127.863.4255 1.223.7801.359.3546.575.7092.791 1.1348.215.4255.287.9219.287 1.4184 0 .4964-.072.9929-.287 1.4184-.216.4256-.432.8511-.791 1.1348-.36.3546-.72.5674-1.223.7801-.432.2128-.935.2837-1.51.2837-.648 0-1.223-.1418-1.726-.4255-.504-.2837-.935-.7092-1.295-1.2057l1.007-.7801c.216.3546.503.5673.863.7801.288.2128.719.2837 1.151.2837.575 0 1.007-.1418 1.438-.4965.432-.3546.647-.7801.719-1.2766h-3.092v-1.2056h3.092c-.144-.4965-.359-.8511-.791-1.2057-.359-.2837-.863-.4965-1.366-.4965-.432 0-.791.071-1.151.2837-.288.2128-.575.4256-.863.7802l-1.007-.7802c.36-.4964.791-.922 1.295-1.2056.503-.1419 1.078-.2837 1.726-.2837zm13.017 7.1631h-1.511v-4.0426l-2.085 2.4114h-.576l-2.085-2.3404v4.0425h-1.51v-7.234h.503l3.38 3.8298 3.38-3.8298h.504zm3.524-4.9645h1.726c.431 0 .791.0709 1.15.1418.36.1418.647.2837.935.4965.216.2127.432.4964.575.7801.144.2837.216.6383.216 1.0638 0 .4256-.072.7092-.216 1.0639-.143.2836-.359.5673-.575.7801s-.575.3546-.935.4964c-.359.1419-.719.1419-1.15.1419h-3.237v-7.0213h1.511zm0 1.2765v2.4114h1.582c.431 0 .791-.0709 1.007-.2837.215-.2128.359-.4964.359-.8511 0-.3546-.144-.6383-.359-.851-.216-.2128-.576-.3546-1.007-.3546h-1.582zm9.277-3.4751c.503 0 .935.0709 1.294.2127.432.1419.719.3546 1.079.6383.288.2837.503.6383.647.9929.144.4256.216.8511.216 1.2766 0 .2128 0 .3547-.072.5674 0 .1419-.072.2837-.072.4255h-5.322c.072.5674.36 1.0639.791 1.3476.432.3546.935.4964 1.511.4964.431 0 .791-.0709 1.15-.2127.36-.1419.648-.3547.935-.6383l.719 1.0638c-.359.3546-.791.6383-1.294.851-.503.2128-1.007.2837-1.582.2837-.576 0-1.079-.0709-1.51-.2837-.504-.2127-.863-.4255-1.223-.7801s-.575-.7092-.791-1.1347c-.216-.4256-.288-.922-.288-1.4185 0-.4964.072-.9929.288-1.4184.216-.4256.431-.8511.791-1.1348.36-.3546.719-.5674 1.151-.7801.575-.2837 1.006-.3546 1.582-.3546zm-.072 1.2766c-.504 0-.935.1418-1.367.4964-.359.2837-.575.7092-.719 1.2766h3.884c0-.5674-.216-.9929-.576-1.2766-.287-.3546-.719-.4964-1.222-.4964z"/></g></g></svg>